# xmcd CD database file
# Copyright (C) 1993-1998 Ti Kan
#
# Track frame offsets:
# 187
# 15350
# 27492
# 45820
# 60467
# 77372
# 91827
# 107930
# 122095
# 133645
#
# Disc length: 1971 seconds
# Revision: 0
# Processed by: cddbd v1.4b41PL1 Copyright (c) Steve Scherf et al.
# Submitted via: CDSpectrumPro v3.3.334
#
DISCID=6c07b10a
DTITLE=Various Artist - Today's Country Classics
DYEAR=1900
DGENRE=
TTITLE0=George Strait - The Cowbay Rides Away
TTITLE1=Reba McEntire - How Blue
TTITLE2=Oak Ridge Boys - Make My Life With You
TTITLE3=Razzy Bailey - Knock On Wood
TTITLE4=Ray Stevens - Mississippi Squirrel Revival
TTITLE5=John Schneider - Country Girls
TTITLE6=Atlanta - Sweet Country Music
TTITLE7=Steve Wariner - What I Didn't do
TTITLE8=Barbara Mandrell - Happy Birthday Dear Heartache
TTITLE9=Lee Greenwood - God Bless The USA
EXTD=
EXTT0=
EXTT1=
EXTT2=
EXTT3=
EXTT4=
EXTT5=
EXTT6=
EXTT7=
EXTT8=
EXTT9=
PLAYORDER=
